<svg fill="#ffffff" version="1.1" id="Layer_1" xmlns="http://www.w3.org/2000/svg" xmlns:xlink="http://www.w3.org/1999/xlink" width="150px" height="150px" viewBox="0 0 512.00 512.00" enable-background="new 0 0 512 512" xml:space="preserve" transform="matrix(1, 0, 0, -1, 0, 0)" stroke="#000000" stroke-width="0.00512"><g id="SVGRepo_bgCarrier" stroke-width="0"></g><g id="SVGRepo_tracerCarrier" stroke-linecap="round" stroke-linejoin="round" stroke="#CCCCCC" stroke-width="3.072"></g><g id="SVGRepo_iconCarrier"> <g> <path d="M256,0C114.609,0,0,114.609,0,256s114.609,256,256,256s256-114.609,256-256S397.391,0,256,0z M256,472 c-119.297,0-216-96.703-216-216S136.703,40,256,40s216,96.703,216,216S375.297,472,256,472z"></path> <rect x="128" y="224" width="160" height="160"></rect> <g> <polygon points="336,176 176,176 176,208 304,208 304,336 336,336 "></polygon> </g> <g> <polygon points="384,128 224,128 224,160 352,160 352,288 384,288 "></polygon> </g> </g> </g></svg>